<svg version="1.1" xmlns="http://www.w3.org/2000/svg" viewBox="0 0 1128.2115080356598 797" width="1128.2115080356598" height="797">
  <!-- svg-source:excalidraw -->
  
  <defs>
    <style>
      @font-face {
        font-family: "Virgil";
        src: url("https://excalidraw.com/Virgil.woff2");
      }
      @font-face {
        font-family: "Cascadia";
        src: url("https://excalidraw.com/Cascadia.woff2");
      }
    </style>
  </defs>
  <rect x="0" y="0" width="1128.2115080356598" height="797" fill="#ffffff"></rect><g stroke-linecap="round" transform="translate(14.126734800264217 16) rotate(0 155.5 107)"><path d="M0.24 -1.22 C106.71 -1.21, 213.89 -0.3, 311.23 1.09 M-0.35 -0.39 C111.29 2.11, 222.88 1.71, 310.49 -0.1 M309.88 -1.39 C312.45 42.79, 312.73 85.9, 311.53 213.49 M310.34 -0.68 C312.96 79.37, 311.94 158.86, 311.83 213.79 M311.92 214.92 C200.75 216.81, 89.18 214.74, -0.19 212.74 M311.36 214.69 C234.82 213.53, 159 212.8, -0.14 213.52 M0.07 212.3 C1.64 158.3, -0.61 100.84, -0.74 1.59 M0.19 213.8 C1.46 165.7, 0.88 117.96, -0.4 0.56" stroke="#000000" stroke-width="1" fill="none"></path></g><g stroke-linecap="round"><g transform="translate(14.126734800264217 60) rotate(0 156.35832439549267 0.2106752638332523)"><path d="M-1.04 -0.82 C51.18 -0.87, 261.31 0.66, 313.76 0.77 M0.61 1.36 C52.71 1.49, 261.11 -0.9, 313.21 -0.94" stroke="#000000" stroke-width="1" fill="none"></path></g></g><g transform="translate(20.126734800264217 27) rotate(0 46 12.5)"><text x="0" y="18" font-family="Virgil, Segoe UI Emoji" font-size="20px" fill="#000000" text-anchor="start" style="white-space: pre;" direction="ltr">IRequest</text></g><g transform="translate(22.126734800264217 75) rotate(0 144.5 75)"><text x="0" y="18" font-family="Virgil, Segoe UI Emoji" font-size="20px" fill="#000000" text-anchor="start" style="white-space: pre;" direction="ltr">id: string</text><text x="0" y="43" font-family="Virgil, Segoe UI Emoji" font-size="20px" fill="#000000" text-anchor="start" style="white-space: pre;" direction="ltr">timestamp: Date</text><text x="0" y="68" font-family="Virgil, Segoe UI Emoji" font-size="20px" fill="#000000" text-anchor="start" style="white-space: pre;" direction="ltr">content: any</text><text x="0" y="93" font-family="Virgil, Segoe UI Emoji" font-size="20px" fill="#000000" text-anchor="start" style="white-space: pre;" direction="ltr">effectiveness: IEffectiveness</text><text x="0" y="118" font-family="Virgil, Segoe UI Emoji" font-size="20px" fill="#000000" text-anchor="start" style="white-space: pre;" direction="ltr">pushBack: string</text><text x="0" y="143" font-family="Virgil, Segoe UI Emoji" font-size="20px" fill="#000000" text-anchor="start" style="white-space: pre;" direction="ltr">calcHash(): string</text></g><g stroke-linecap="round" transform="translate(480.1267348002642 13) rotate(0 126.5 58.5)"><path d="M0.85 -0.74 C100.44 1.44, 197.98 -1.18, 253.63 0.35 M-0.22 0.45 C94.44 -0.82, 187.99 -0.48, 252.6 -0.8 M254.59 -0.22 C254.06 29.97, 254.55 61.12, 251.98 118.59 M252.22 -0.52 C253.03 26.65, 252.08 55.89, 253.18 116.22 M252.91 115.68 C196.11 117.6, 137.67 118.56, -0.27 117.49 M253.66 117.37 C152.27 118.54, 51.62 119.74, 0.7 116.41 M-0.86 115.86 C0.9 77.98, -0.32 39.43, 0.73 1.27 M-0.96 117.58 C-0.29 76.57, -0.82 36.14, 0.07 0.32" stroke="#000000" stroke-width="1" fill="none"></path></g><g stroke-linecap="round"><g transform="translate(482.1267348002642 57) rotate(0 125.1406608488038 -0.0953474532812777)"><path d="M0.33 0.68 C42.01 0.37, 209.26 -0.73, 251.23 -0.87 M-0.95 -0.01 C40.49 -0.27, 208.25 0.03, 250.41 0.21" stroke="#000000" stroke-width="1" fill="none"></path></g></g><g transform="translate(490.1267348002642 23) rotate(0 72.5 12.5)"><text x="0" y="18" font-family="Virgil, Segoe UI Emoji" font-size="20px" fill="#000000" text-anchor="start" style="white-space: pre;" direction="ltr">IEffectiveness</text></g><g transform="translate(491.1267348002642 70) rotate(0 118 25)"><text x="0" y="18" font-family="Virgil, Segoe UI Emoji" font-size="20px" fill="#000000" text-anchor="start" style="white-space: pre;" direction="ltr">type: EffectivenessType</text><text x="0" y="43" font-family="Virgil, Segoe UI Emoji" font-size="20px" fill="#000000" text-anchor="start" style="white-space: pre;" direction="ltr">expires: any</text></g><g stroke-linecap="round" transform="translate(480.1267348002642 149) rotate(0 127.5 66)"><path d="M0.53 -1.18 C91.83 1.58, 185.39 1.86, 255.96 0.06 M-0.76 0.67 C97.35 -0.45, 195.47 -1.67, 255.13 0.05 M255 -0.36 C257.48 27.09, 254.58 53.06, 255.13 131.66 M254.99 -0.03 C254.62 34.87, 255.9 71.02, 255.07 131.13 M255.25 133.32 C167.92 131.55, 83.94 131.93, -0.87 132.5 M255.64 132.41 C181.88 132.63, 107.95 133.4, 0.61 132.06 M-1.43 130.51 C-0.68 80.53, -1.45 32.99, -1.94 -1.56 M0.17 131.16 C0.61 87.73, 0.33 42.62, -0.92 -0.34" stroke="#000000" stroke-width="1" fill="none"></path></g><g stroke-linecap="round"><g transform="translate(480.1267348002642 186) rotate(0 130.9344839604385 -0.2847456722147683)"><path d="M0.03 -1.17 C43.73 -0.92, 217.42 0.31, 261.07 0.47 M-1.42 0.84 C42.76 0.8, 219.54 -1.43, 263.29 -1.4" stroke="#000000" stroke-width="1" fill="none"></path></g></g><g transform="translate(487.1267348002642 154) rotate(0 90 12.5)"><text x="0" y="18" font-family="Virgil, Segoe UI Emoji" font-size="20px" fill="#000000" text-anchor="start" style="white-space: pre;" direction="ltr">EffectivenessType</text></g><g transform="translate(492.1267348002642 202) rotate(0 75 37.5)"><text x="0" y="18" font-family="Virgil, Segoe UI Emoji" font-size="20px" fill="#000000" text-anchor="start" style="white-space: pre;" direction="ltr">Unlimited</text><text x="0" y="43" font-family="Virgil, Segoe UI Emoji" font-size="20px" fill="#000000" text-anchor="start" style="white-space: pre;" direction="ltr">LimitedByUsage</text><text x="0" y="68" font-family="Virgil, Segoe UI Emoji" font-size="20px" fill="#000000" text-anchor="start" style="white-space: pre;" direction="ltr">LimitedByTime</text></g><g stroke-linecap="round" transform="translate(10.126734800264217 238) rotate(0 159 145.5)"><path d="M1.21 0.81 C90.64 1.62, 179.69 2.62, 317.73 -0.08 M-0.28 0.09 C105.74 1.71, 212.23 1.49, 318.23 0.06 M317.45 -0.9 C316.52 99.44, 314.49 196.68, 317.1 290.03 M318.14 -0.18 C316.77 71.98, 316.89 143.25, 318.66 290.97 M318.22 290.88 C228.46 289.76, 137.73 289.85, -1.03 291.7 M317.59 291.23 C249.9 289.53, 183.28 289.28, 0.26 291.32 M0.54 291.46 C0.21 209.63, -0.48 128.81, 1.04 -0.38 M0.17 290.33 C1.77 188.64, 1.45 87.07, -0.51 0.38" stroke="#000000" stroke-width="1" fill="none"></path></g><g stroke-linecap="round"><g transform="translate(11.126734800264217 282) rotate(0 157.8851585853845 -1.209842671873048)"><path d="M-1.13 0.18 C51.72 -0.06, 263.75 -0.8, 316.9 -1 M0.48 -0.76 C53.18 -1.37, 263.08 -2.25, 315.89 -2.6" stroke="#000000" stroke-width="1" fill="none"></path></g></g><g transform="translate(21.126734800264217 252) rotate(0 34.5 12.5)"><text x="0" y="18" font-family="Virgil, Segoe UI Emoji" font-size="20px" fill="#000000" text-anchor="start" style="white-space: pre;" direction="ltr">IToken</text></g><g transform="translate(23.126734800264217 290) rotate(0 105.5 112.5)"><text x="0" y="18" font-family="Virgil, Segoe UI Emoji" font-size="20px" fill="#000000" text-anchor="start" style="white-space: pre;" direction="ltr">previous: string</text><text x="0" y="43" font-family="Virgil, Segoe UI Emoji" font-size="20px" fill="#000000" text-anchor="start" style="white-space: pre;" direction="ltr">hash: string</text><text x="0" y="68" font-family="Virgil, Segoe UI Emoji" font-size="20px" fill="#000000" text-anchor="start" style="white-space: pre;" direction="ltr">req: IRequest</text><text x="0" y="93" font-family="Virgil, Segoe UI Emoji" font-size="20px" fill="#000000" text-anchor="start" style="white-space: pre;" direction="ltr">status: TokenStatus</text><text x="0" y="118" font-family="Virgil, Segoe UI Emoji" font-size="20px" fill="#000000" text-anchor="start" style="white-space: pre;" direction="ltr">isValid: boolean</text><text x="0" y="143" font-family="Virgil, Segoe UI Emoji" font-size="20px" fill="#000000" text-anchor="start" style="white-space: pre;" direction="ltr">identity: string</text><text x="0" y="168" font-family="Virgil, Segoe UI Emoji" font-size="20px" fill="#000000" text-anchor="start" style="white-space: pre;" direction="ltr">nonce: number</text><text x="0" y="193" font-family="Virgil, Segoe UI Emoji" font-size="20px" fill="#000000" text-anchor="start" style="white-space: pre;" direction="ltr">calcHash(): string</text><text x="0" y="218" font-family="Virgil, Segoe UI Emoji" font-size="20px" fill="#000000" text-anchor="start" style="white-space: pre;" direction="ltr">validate(): boolean</text></g><g stroke-linecap="round" transform="translate(483.1267348002642 294) rotate(0 123.5 70.5)"><path d="M-0.66 -0.31 C51.68 0.11, 101.89 0.32, 245.85 -0.06 M-0.5 -0.17 C66.27 -0.08, 133.68 -0.35, 246.28 0.81 M248.42 -1.26 C246.39 31.83, 249.45 65.98, 246.56 141.77 M247.71 -0.3 C248.06 31.4, 248.12 63.4, 247.92 141.31 M247.43 141.5 C182.06 141.76, 116.36 142.24, 0.4 140.58 M247.29 140.22 C175.62 142.38, 102.9 142.82, 0.02 140.23 M0.3 139.12 C2.89 97.4, 2.31 54.38, -1.14 1.76 M0.8 141.27 C0.13 85.71, -0.94 32.8, -0.58 -0.81" stroke="#000000" stroke-width="1" fill="none"></path></g><g stroke-linecap="round"><g transform="translate(482.1267348002642 340) rotate(0 124.16421719935721 -1.6630757449753446)"><path d="M-0.11 -0.95 C41.5 -1.33, 208.63 -2.36, 249.95 -2.58 M-1.62 1.16 C39.88 0.44, 207.54 -3.58, 249.51 -4.48" stroke="#000000" stroke-width="1" fill="none"></path></g></g><g transform="translate(489.1267348002642 305) rotate(0 64.5 12.5)"><text x="0" y="18" font-family="Virgil, Segoe UI Emoji" font-size="20px" fill="#000000" text-anchor="start" style="white-space: pre;" direction="ltr">TokenStatus</text></g><g transform="translate(496.1267348002642 353) rotate(0 38 37.5)"><text x="0" y="18" font-family="Virgil, Segoe UI Emoji" font-size="20px" fill="#000000" text-anchor="start" style="white-space: pre;" direction="ltr">Pending</text><text x="0" y="43" font-family="Virgil, Segoe UI Emoji" font-size="20px" fill="#000000" text-anchor="start" style="white-space: pre;" direction="ltr">Success</text><text x="0" y="68" font-family="Virgil, Segoe UI Emoji" font-size="20px" fill="#000000" text-anchor="start" style="white-space: pre;" direction="ltr">Failed</text></g><g stroke-linecap="round" transform="translate(797.1267348002642 10) rotate(0 160 59)"><path d="M0.18 -1.06 C111.73 -1.03, 225.68 -0.36, 320.96 -0.53 M0.55 -0.34 C123.87 1.4, 247.1 1.4, 319.42 0.25 M320.51 -0.36 C320.29 26.71, 319.41 54.5, 320.33 119.16 M319.95 0.35 C320.19 31.57, 320.66 61.57, 319.06 118.45 M320.1 119.29 C239.38 117.5, 158.32 115.95, -0.5 118.74 M320.4 118.44 C244.17 116.05, 168.4 117.14, -0.15 118.13 M0.49 116.05 C0.41 87.53, 1.85 57.33, -1.8 -1.26 M-0.11 117.5 C0.38 73.73, 1.88 30.87, -0.92 0.68" stroke="#000000" stroke-width="1" fill="none"></path></g><g stroke-linecap="round"><g transform="translate(796.1267348002642 50) rotate(0 160.894455968216 -0.01595824249089617)"><path d="M-0.3 0.88 C53.43 0.63, 268.39 -0.77, 322.08 -0.91 M1.75 0.3 C55.34 0.21, 267.97 1.01, 321.18 0.67" stroke="#000000" stroke-width="1" fill="none"></path></g></g><g transform="translate(805.1267348002642 18) rotate(0 79 12.5)"><text x="0" y="18" font-family="Virgil, Segoe UI Emoji" font-size="20px" fill="#000000" text-anchor="start" style="white-space: pre;" direction="ltr">ValidationResult</text></g><g transform="translate(807.1267348002642 64) rotate(0 110 25)"><text x="0" y="18" font-family="Virgil, Segoe UI Emoji" font-size="20px" fill="#000000" text-anchor="start" style="white-space: pre;" direction="ltr">isValid: boolean</text><text x="0" y="43" font-family="Virgil, Segoe UI Emoji" font-size="20px" fill="#000000" text-anchor="start" style="white-space: pre;" direction="ltr">reasons: Array&lt;string&gt;</text></g><g stroke-linecap="round" transform="translate(12.126734800264217 538) rotate(0 160.5 124.5)"><path d="M-0.77 -0.42 C110.23 -1.3, 218.43 -0.85, 320.04 0.63 M0.25 0.13 C90.68 -2.64, 179.56 -1.82, 320.42 0.14 M320.79 1.43 C323.54 82.63, 322.5 167.65, 321.98 250.13 M320.19 -0.53 C322.98 57.58, 322.12 114.27, 321.74 249.26 M322.02 248.77 C236.52 250.07, 149.55 251.26, 0.27 249.82 M320.5 249.15 C254.1 246.31, 186.53 247.29, 0.43 248.68 M-1.24 249.18 C1.01 158.7, 2.83 67.38, -1.26 0.04 M-0.57 249.5 C1.17 161.29, -0.16 72.14, 0.73 0.27" stroke="#000000" stroke-width="1" fill="none"></path></g><g stroke-linecap="round"><g transform="translate(14.126734800264217 586) rotate(0 160.84741670441812 1.4075823369901173)"><path d="M0.43 -0.89 C54.1 -0.61, 268.81 1.55, 322.5 2.11 M-0.81 1.25 C52.63 1.71, 267.55 3.86, 321.29 3.71" stroke="#000000" stroke-width="1" fill="none"></path></g></g><g transform="translate(25.126734800264217 552) rotate(0 31 12.5)"><text x="0" y="18" font-family="Virgil, Segoe UI Emoji" font-size="20px" fill="#000000" text-anchor="start" style="white-space: pre;" direction="ltr">IChain</text></g><g transform="translate(27.126734800264217 599) rotate(0 118 87.5)"><text x="0" y="18" font-family="Virgil, Segoe UI Emoji" font-size="20px" fill="#000000" text-anchor="start" style="white-space: pre;" direction="ltr">difficulty: number</text><text x="0" y="43" font-family="Virgil, Segoe UI Emoji" font-size="20px" fill="#000000" text-anchor="start" style="white-space: pre;" direction="ltr">chain: Array&lt;IToken&gt;</text><text x="0" y="68" font-family="Virgil, Segoe UI Emoji" font-size="20px" fill="#000000" text-anchor="start" style="white-space: pre;" direction="ltr">createGenesis(): IToken</text><text x="0" y="93" font-family="Virgil, Segoe UI Emoji" font-size="20px" fill="#000000" text-anchor="start" style="white-space: pre;" direction="ltr">add(t: IToken): IToken</text><text x="0" y="118" font-family="Virgil, Segoe UI Emoji" font-size="20px" fill="#000000" text-anchor="start" style="white-space: pre;" direction="ltr">mine(t: IToken): IToken</text><text x="0" y="143" font-family="Virgil, Segoe UI Emoji" font-size="20px" fill="#000000" text-anchor="start" style="white-space: pre;" direction="ltr">last(): IToken</text><text x="0" y="168" font-family="Virgil, Segoe UI Emoji" font-size="20px" fill="#000000" text-anchor="start" style="white-space: pre;" direction="ltr">validate(): boolean</text></g></svg>