<svg version="1.1" xmlns="http://www.w3.org/2000/svg" viewBox="0 0 1293.494411275287 489.00270203933746" width="2586.988822550574" height="978.0054040786749">
  <!-- svg-source:excalidraw -->
  
  <defs>
    <style>
      @font-face {
        font-family: "Virgil";
        src: url("https://excalidraw.com/Virgil.woff2");
      }
      @font-face {
        font-family: "Cascadia";
        src: url("https://excalidraw.com/Cascadia.woff2");
      }
    </style>
  </defs>
  <g stroke-linecap="round" transform="translate(722.5316071578497 201.58582121150812) rotate(0 128.55781844147225 138.70844041391467)"><path d="M1.09 -1.38 C64.07 0.87, 130.75 0.5, 257.03 -0.47 M0.25 0.78 C81.71 -0.74, 164.29 -1.94, 257.47 -0.71 M256.82 1.47 C259.11 91.14, 258.92 185.02, 255.93 276.21 M256.51 0.56 C256.93 83, 256.2 166.63, 257.3 277.59 M257.77 278.09 C189.44 275.75, 122.61 276.99, -0.45 278.01 M257.88 277.18 C172.62 275.65, 90.4 276.42, -0.78 277.03 M-0.82 278.52 C2.11 219.09, 1.77 164.2, -0.03 1.03 M0.74 277.75 C1.12 221.03, 1.02 165.25, -0.15 0.66" stroke="#000000" stroke-width="1" fill="none"></path></g><g stroke-linecap="round"><g transform="translate(726.2735737324365 245.4428164286004) rotate(0 124.60408283948453 -1.3371444203049236)"><path d="M0.5 1.17 C42.01 0.47, 208.32 -3.1, 249.9 -3.84 M-0.69 0.74 C40.55 0.14, 207.14 -2.26, 248.78 -2.74" stroke="#000000" stroke-width="1" fill="none"></path></g></g><g transform="translate(733.6332525636801 213.04477255991958) rotate(0 31.5 12.5)"><text x="0" y="18" font-family="Virgil, Segoe UI Emoji" font-size="20px" fill="#000000" text-anchor="start" style="white-space: pre;" direction="ltr">IBlock</text></g><g transform="translate(739.1147795892882 260.361772630142) rotate(0 110.5 100)"><text x="0" y="18" font-family="Virgil, Segoe UI Emoji" font-size="20px" fill="#000000" text-anchor="start" style="white-space: pre;" direction="ltr">timestamp: Date</text><text x="0" y="43" font-family="Virgil, Segoe UI Emoji" font-size="20px" fill="#000000" text-anchor="start" style="white-space: pre;" direction="ltr">previous: string</text><text x="0" y="68" font-family="Virgil, Segoe UI Emoji" font-size="20px" fill="#000000" text-anchor="start" style="white-space: pre;" direction="ltr">hash: string</text><text x="0" y="93" font-family="Virgil, Segoe UI Emoji" font-size="20px" fill="#000000" text-anchor="start" style="white-space: pre;" direction="ltr">tokens: Array&lt;IToken&gt;</text><text x="0" y="118" font-family="Virgil, Segoe UI Emoji" font-size="20px" fill="#000000" text-anchor="start" style="white-space: pre;" direction="ltr">nonce: number</text><text x="0" y="143" font-family="Virgil, Segoe UI Emoji" font-size="20px" fill="#000000" text-anchor="start" style="white-space: pre;" direction="ltr">+calcHash(): string</text><text x="0" y="168" font-family="Virgil, Segoe UI Emoji" font-size="20px" fill="#000000" text-anchor="start" style="white-space: pre;" direction="ltr">+validate(): boolean</text><text x="0" y="193" font-family="Virgil, Segoe UI Emoji" font-size="20px" fill="#000000" text-anchor="start" style="white-space: pre;" direction="ltr"></text></g><g stroke-linecap="round" transform="translate(402.65798169575527 205.0649421135513) rotate(0 130.9664406044247 136.24963862256732)"><path d="M0.75 0.8 C77.88 -0.5, 155.54 -1.79, 262.56 0.64 M0.38 -0.38 C70.52 1.04, 141.7 1.54, 262.2 0.77 M262.11 0.98 C264.83 59.85, 262.48 118.59, 263.25 272.37 M262.03 -0.78 C261.63 102.01, 261.55 203.66, 262.55 272.66 M263.21 273.18 C164.88 272.87, 69.28 272.85, 0.26 271.78 M262.14 272.56 C196.24 271.14, 131.33 272.44, -0.18 272.08 M0.52 272.83 C-0.82 194.59, -2.68 116.87, 1.39 -0.44 M0.64 271.81 C1.36 169.77, 1.38 65.14, -0.25 -0.69" stroke="#000000" stroke-width="1" fill="none"></path></g><g stroke-linecap="round"><g transform="translate(405.23386928669055 246.59455837556845) rotate(0 129.03510917026028 0.22653262110856076)"><path d="M0.4 0.26 C43.4 0.36, 216.07 -0.46, 258.92 -0.54 M-0.85 -0.66 C41.97 -0.23, 214.82 1.36, 258.28 1.08" stroke="#000000" stroke-width="1" fill="none"></path></g></g><g transform="translate(420.6461837222493 215.95041199459308) rotate(0 34.5 12.5)"><text x="0" y="18" font-family="Virgil, Segoe UI Emoji" font-size="20px" fill="#000000" text-anchor="start" style="white-space: pre;" direction="ltr">IToken</text></g><g transform="translate(419.18858499268487 265.2554811516968) rotate(0 105.5 87.5)"><text x="0" y="18" font-family="Virgil, Segoe UI Emoji" font-size="20px" fill="#000000" text-anchor="start" style="white-space: pre;" direction="ltr">hash: string</text><text x="0" y="43" font-family="Virgil, Segoe UI Emoji" font-size="20px" fill="#000000" text-anchor="start" style="white-space: pre;" direction="ltr">req: IRequest</text><text x="0" y="68" font-family="Virgil, Segoe UI Emoji" font-size="20px" fill="#000000" text-anchor="start" style="white-space: pre;" direction="ltr">status: TokenStatus</text><text x="0" y="93" font-family="Virgil, Segoe UI Emoji" font-size="20px" fill="#000000" text-anchor="start" style="white-space: pre;" direction="ltr">isValid: boolean</text><text x="0" y="118" font-family="Virgil, Segoe UI Emoji" font-size="20px" fill="#000000" text-anchor="start" style="white-space: pre;" direction="ltr">identity: string</text><text x="0" y="143" font-family="Virgil, Segoe UI Emoji" font-size="20px" fill="#000000" text-anchor="start" style="white-space: pre;" direction="ltr">+calcHash(): string</text><text x="0" y="168" font-family="Virgil, Segoe UI Emoji" font-size="20px" fill="#000000" text-anchor="start" style="white-space: pre;" direction="ltr">+validate(): boolean</text></g><g stroke-linecap="round" transform="translate(23.357339177483595 194.4077448449318) rotate(0 160.24028000753006 138.96889658034502)"><path d="M-1.29 -0.29 C73.96 0.07, 148.18 0.56, 321.05 1.1 M0.55 0.4 C93.08 -2.11, 186.32 -1.21, 320.37 -0.17 M320.15 -0.92 C322.79 85.66, 323.61 171.13, 320.21 278.3 M320.23 -0.67 C319.39 86.29, 318.94 172.93, 321.19 277.76 M320.34 277.17 C226.88 279.97, 134.94 278.89, 0.32 278.49 M320.65 278.01 C217.82 275.9, 116.11 275.76, -0.69 277.36 M1.42 278.5 C0.04 186.66, -1.16 96.87, 0.78 -0.48 M0.25 277.32 C-0.32 200.52, -0.22 121.81, 0.06 0.67" stroke="#000000" stroke-width="1" fill="none"></path></g><g stroke-linecap="round"><g transform="translate(24.126760146204504 236.90272157702123) rotate(0 159.07840180609207 -0.6904618579036992)"><path d="M-0.5 -0.87 C52.53 -1.13, 265.55 -0.7, 318.66 -0.89 M1.44 1.29 C54.34 0.63, 265.47 -2.29, 318.16 -2.67" stroke="#000000" stroke-width="1" fill="none"></path></g></g><g transform="translate(34.482879644454385 207.99335663483907) rotate(0 46 12.5)"><text x="0" y="18" font-family="Virgil, Segoe UI Emoji" font-size="20px" fill="#000000" text-anchor="start" style="white-space: pre;" direction="ltr">IRequest</text></g><g transform="translate(36.71467835496787 250.80852718620963) rotate(0 144.5 75)"><text x="0" y="18" font-family="Virgil, Segoe UI Emoji" font-size="20px" fill="#000000" text-anchor="start" style="white-space: pre;" direction="ltr">id: string</text><text x="0" y="43" font-family="Virgil, Segoe UI Emoji" font-size="20px" fill="#000000" text-anchor="start" style="white-space: pre;" direction="ltr">timestamp: Date</text><text x="0" y="68" font-family="Virgil, Segoe UI Emoji" font-size="20px" fill="#000000" text-anchor="start" style="white-space: pre;" direction="ltr">content: any</text><text x="0" y="93" font-family="Virgil, Segoe UI Emoji" font-size="20px" fill="#000000" text-anchor="start" style="white-space: pre;" direction="ltr">effectiveness: IEffectiveness</text><text x="0" y="118" font-family="Virgil, Segoe UI Emoji" font-size="20px" fill="#000000" text-anchor="start" style="white-space: pre;" direction="ltr">pushBack: string</text><text x="0" y="143" font-family="Virgil, Segoe UI Emoji" font-size="20px" fill="#000000" text-anchor="start" style="white-space: pre;" direction="ltr">+calcHash(): string</text></g><g stroke-linecap="round" transform="translate(10 10) rotate(0 167.19374279938685 78.82502768995528)"><path d="M-0.03 0.95 C83.81 -1.81, 166.06 -0.74, 333.53 0.18 M0.22 0.09 C112.05 -0.21, 224.52 0.01, 334.87 0.58 M334.44 -0.98 C332.01 61.86, 333.5 124.06, 335.69 156.65 M335.31 -0.62 C335.65 38.27, 335.16 76.24, 334.02 157.28 M335.44 158.12 C225.22 154.85, 118.65 157.02, 0.59 157.61 M333.95 157.93 C227.19 156.17, 120.95 156.99, 0.61 158.21 M0.84 156.38 C-3.17 122.52, -2.68 87.91, 1.01 0.92 M-0.49 158.38 C-0.43 125.42, 0.25 93.22, 0.49 0.69" stroke="#000000" stroke-width="1" fill="none"></path></g><g stroke-linecap="round"><g transform="translate(12.384727101812018 52.862960673651514) rotate(0 165.99859438804413 0.03270884358124704)"><path d="M-1.16 0.08 C53.88 -0.05, 275.22 -0.21, 330.81 -0.23 M0.43 -0.93 C55.81 -0.96, 277.88 0.66, 333.16 0.99" stroke="#000000" stroke-width="1" fill="none"></path></g></g><g transform="translate(27.52463784037019 20.259419279163353) rotate(0 72.5 12.5)"><text x="0" y="18" font-family="Virgil, Segoe UI Emoji" font-size="20px" fill="#000000" text-anchor="start" style="white-space: pre;" direction="ltr">IEffectiveness</text></g><g transform="translate(30.215221724779326 72.14515503943039) rotate(0 149 25)"><text x="0" y="18" font-family="Virgil, Segoe UI Emoji" font-size="20px" fill="#000000" text-anchor="start" style="white-space: pre;" direction="ltr">type: EffectivenessType</text><text x="0" y="43" font-family="Virgil, Segoe UI Emoji" font-size="20px" fill="#000000" text-anchor="start" style="white-space: pre;" direction="ltr">expires: string | Date | number</text></g><g stroke-linecap="round" transform="translate(394.24692017433466 10.73118887089629) rotate(0 132.9353936423937 78.12968141076959)"><path d="M-0.07 -1.37 C88.2 1.67, 178.54 0.97, 266.7 -0.04 M0.41 0.44 C78.85 1.67, 158.46 2.19, 266.46 0.69 M267.68 -0.54 C267.9 57.45, 268 114.76, 267.39 154.58 M265.76 -0.39 C266.14 55.81, 266.32 108.96, 266.06 157.03 M266.7 155.21 C210.08 156.74, 152.61 157.3, -0.38 155.22 M265.66 156.45 C193.44 157.02, 121.15 157.52, -0.62 156.59 M-0.62 155.99 C1.23 97.1, 1.55 38.53, 1.79 1.64 M-0.31 156.95 C0.63 96.62, -0.77 38.05, -0.96 0.37" stroke="#000000" stroke-width="1" fill="none"></path></g><g stroke-linecap="round"><g transform="translate(398.5480311796069 51.00870392915647) rotate(0 130.36478391335177 -1.1453419608042168)"><path d="M-0.78 -0.39 C42.98 -0.71, 217.93 -1.85, 261.51 -1.9 M1.01 -1.64 C44.7 -1.81, 216.84 -0.47, 260.52 -0.65" stroke="#000000" stroke-width="1" fill="none"></path></g></g><g transform="translate(409.6018864631565 16.288060117628675) rotate(0 90 12.5)"><text x="0" y="18" font-family="Virgil, Segoe UI Emoji" font-size="20px" fill="#000000" text-anchor="start" style="white-space: pre;" direction="ltr">EffectivenessType</text></g><g transform="translate(409.0045099346465 60.41745903172148) rotate(0 75.5 37.5)"><text x="0" y="18" font-family="Virgil, Segoe UI Emoji" font-size="20px" fill="#000000" text-anchor="start" style="white-space: pre;" direction="ltr">Unlimited</text><text x="0" y="43" font-family="Virgil, Segoe UI Emoji" font-size="20px" fill="#000000" text-anchor="start" style="white-space: pre;" direction="ltr">LimitedByTime</text><text x="0" y="68" font-family="Virgil, Segoe UI Emoji" font-size="20px" fill="#000000" text-anchor="start" style="white-space: pre;" direction="ltr">LimitedByUsage</text></g><g stroke-linecap="round" transform="translate(709.6473901909458 14.406249274289962) rotate(0 135.2603830913547 78.54067646238451)"><path d="M0.34 -0.25 C102.08 1.94, 204.38 1.44, 269.21 0 M-0.64 0.5 C93.02 -1.38, 184.46 -1.37, 271.27 -0.47 M271.02 1.33 C269.04 45.54, 271.62 89.24, 270.58 157.64 M270.34 -0.96 C270.54 39.04, 270.57 76.75, 270.14 157.66 M270.65 156.68 C180 156.09, 88.95 155.12, -0.28 156.17 M270.72 156.89 C195.56 156.66, 121.01 156.56, 0.68 157.4 M-1.81 156.83 C-0.41 119.83, 0.3 81.23, -1.08 1.12 M-0.44 156.75 C0.79 112.76, 0.33 68.9, -0.68 -0.87" stroke="#000000" stroke-width="1" fill="none"></path></g><g stroke-linecap="round"><g transform="translate(712.2806259286178 48.8008002797834) rotate(0 133.7085430056083 0.04453189870520191)"><path d="M1.06 -1.12 C45.49 -1.21, 223.01 -0.54, 267.26 -0.4 M0.16 0.91 C44.42 1.02, 222.38 1.18, 266.64 1.21" stroke="#000000" stroke-width="1" fill="none"></path></g></g><g transform="translate(721.7239540913044 18.41949957135239) rotate(0 64.5 12.5)"><text x="0" y="18" font-family="Virgil, Segoe UI Emoji" font-size="20px" fill="#000000" text-anchor="start" style="white-space: pre;" direction="ltr">TokenStatus</text></g><g transform="translate(725.265202152312 61.86549973682986) rotate(0 38 37.5)"><text x="0" y="18" font-family="Virgil, Segoe UI Emoji" font-size="20px" fill="#000000" text-anchor="start" style="white-space: pre;" direction="ltr">Pending</text><text x="0" y="43" font-family="Virgil, Segoe UI Emoji" font-size="20px" fill="#000000" text-anchor="start" style="white-space: pre;" direction="ltr">Success</text><text x="0" y="68" font-family="Virgil, Segoe UI Emoji" font-size="20px" fill="#000000" text-anchor="start" style="white-space: pre;" direction="ltr">Failed</text></g><g stroke-linecap="round" transform="translate(999.331995408257 14.764675191396009) rotate(0 141.44203540837646 206.8021961457158)"><path d="M0.31 0.23 C92.19 1.68, 181.25 2.77, 283.73 1.51 M-0.13 0.58 C73.79 -0.94, 146.06 -1.77, 283.51 0.03 M281.83 0 C284.11 131.51, 283.12 261.5, 282.1 413.31 M283.21 -0.28 C283.13 111.81, 283.17 223.18, 282.97 413.44 M283.42 414.75 C188.83 412.26, 94.22 412.99, 0.72 413.24 M283.53 412.98 C176.8 411.73, 69.12 411.85, -0.16 413.61 M0.37 413.66 C0.42 274.13, -0.33 135, 0.11 0.88 M0.42 413.61 C0.2 248.09, -0.67 83.14, -0.44 0.4" stroke="#000000" stroke-width="1" fill="none"></path></g><g stroke-linecap="round"><g transform="translate(1002.4240163198249 55.52009147246417) rotate(0 139.82331300726077 0.9927707532048657)"><path d="M0.02 1.16 C46.95 1.08, 234.08 0.58, 281.07 0.42 M-1.42 0.73 C45.36 0.71, 232.78 1.52, 279.94 1.57" stroke="#000000" stroke-width="1" fill="none"></path></g></g><g transform="translate(1014.8112160150088 20.866353832129562) rotate(0 31 12.5)"><text x="0" y="18" font-family="Virgil, Segoe UI Emoji" font-size="20px" fill="#000000" text-anchor="start" style="white-space: pre;" direction="ltr">IChain</text></g><g transform="translate(1017.5878221195235 73.25388587634507) rotate(0 99 25)"><text x="0" y="18" font-family="Virgil, Segoe UI Emoji" font-size="20px" fill="#000000" text-anchor="start" style="white-space: pre;" direction="ltr">chain: Array&lt;IBlock&gt;</text><text x="0" y="43" font-family="Virgil, Segoe UI Emoji" font-size="20px" fill="#000000" text-anchor="start" style="white-space: pre;" direction="ltr"></text></g><g transform="translate(1017.1338159578559 103.15616538744302) rotate(0 121 137.5)"><text x="0" y="18" font-family="Virgil, Segoe UI Emoji" font-size="20px" fill="#000000" text-anchor="start" style="white-space: pre;" direction="ltr">difficulty: number</text><text x="0" y="43" font-family="Virgil, Segoe UI Emoji" font-size="20px" fill="#000000" text-anchor="start" style="white-space: pre;" direction="ltr">queue: Array&lt;IRequest&gt;</text><text x="0" y="68" font-family="Virgil, Segoe UI Emoji" font-size="20px" fill="#000000" text-anchor="start" style="white-space: pre;" direction="ltr">reward: number</text><text x="0" y="93" font-family="Virgil, Segoe UI Emoji" font-size="20px" fill="#000000" text-anchor="start" style="white-space: pre;" direction="ltr">lastAt: Date</text><text x="0" y="118" font-family="Virgil, Segoe UI Emoji" font-size="20px" fill="#000000" text-anchor="start" style="white-space: pre;" direction="ltr">lastIndex: number</text><text x="0" y="143" font-family="Virgil, Segoe UI Emoji" font-size="20px" fill="#000000" text-anchor="start" style="white-space: pre;" direction="ltr">+createGenesis(): IBlock</text><text x="0" y="168" font-family="Virgil, Segoe UI Emoji" font-size="20px" fill="#000000" text-anchor="start" style="white-space: pre;" direction="ltr">+last(): IBlock</text><text x="0" y="193" font-family="Virgil, Segoe UI Emoji" font-size="20px" fill="#000000" text-anchor="start" style="white-space: pre;" direction="ltr">+add(t: IBlock): void</text><text x="0" y="218" font-family="Virgil, Segoe UI Emoji" font-size="20px" fill="#000000" text-anchor="start" style="white-space: pre;" direction="ltr">+mine(t: IBlock): IBlock</text><text x="0" y="243" font-family="Virgil, Segoe UI Emoji" font-size="20px" fill="#000000" text-anchor="start" style="white-space: pre;" direction="ltr">+validate(): boolean</text><text x="0" y="268" font-family="Virgil, Segoe UI Emoji" font-size="20px" fill="#000000" text-anchor="start" style="white-space: pre;" direction="ltr"></text></g></svg>